<mxfile host="app.diagrams.net" modified="2020-08-25T13:14:10.619Z" agent="5.0 (Windows NT 10.0; Win64; x64) AppleWebKit/537.36 (KHTML, like Gecko) Chrome/84.0.4147.135 Safari/537.36" etag="kIijJwEs9Enz5oe1Ry_B" version="13.6.4" type="github">
  <diagram name="Page-1" id="5f0bae14-7c28-e335-631c-24af17079c00">
    <mxGraphModel dx="593" dy="285" grid="1" gridSize="10" guides="1" tooltips="1" connect="1" arrows="1" fold="1" page="1" pageScale="1" pageWidth="1100" pageHeight="850" background="#ffffff" math="0" shadow="0" extFonts="Old Standard TT^https://fonts.googleapis.com/css?family=Old+Standard+TT">
      <root>
        <mxCell id="0" />
        <mxCell id="1" parent="0" />
        <mxCell id="gkH7YX-BDu-8vxs8VD1o-15" value="&lt;font style=&quot;font-size: 14px&quot; face=&quot;Old Standard TT&quot;&gt;Server&lt;/font&gt;" style="verticalAlign=top;align=left;spacingTop=8;spacingLeft=2;spacingRight=12;shape=cube;size=10;direction=south;fontStyle=4;html=1;rounded=0;shadow=0;comic=0;labelBackgroundColor=none;strokeWidth=1;fontFamily=Verdana;fontSize=12" parent="1" vertex="1">
          <mxGeometry x="765" y="170" width="265" height="260" as="geometry" />
        </mxCell>
        <mxCell id="gkH7YX-BDu-8vxs8VD1o-34" value="" style="rounded=0;whiteSpace=wrap;html=1;" parent="1" vertex="1">
          <mxGeometry x="840" y="383" width="140" height="30" as="geometry" />
        </mxCell>
        <mxCell id="39150e848f15840c-1" value="&lt;font face=&quot;Old Standard TT&quot; style=&quot;font-size: 14px&quot;&gt;Client&lt;/font&gt;" style="verticalAlign=top;align=left;spacingTop=8;spacingLeft=2;spacingRight=12;shape=cube;size=10;direction=south;fontStyle=4;html=1;rounded=0;shadow=0;comic=0;labelBackgroundColor=none;strokeWidth=1;fontFamily=Verdana;fontSize=12" parent="1" vertex="1">
          <mxGeometry x="380" y="170" width="290" height="240" as="geometry" />
        </mxCell>
        <mxCell id="39150e848f15840c-3" value="&lt;font face=&quot;Old Standard TT&quot; style=&quot;font-size: 14px&quot;&gt;DataBase&lt;/font&gt;" style="verticalAlign=top;align=left;spacingTop=8;spacingLeft=2;spacingRight=12;shape=cube;size=10;direction=south;fontStyle=4;html=1;rounded=0;shadow=0;comic=0;labelBackgroundColor=none;strokeWidth=1;fontFamily=Verdana;fontSize=12" parent="1" vertex="1">
          <mxGeometry x="780" y="470" width="260" height="130" as="geometry" />
        </mxCell>
        <mxCell id="gkH7YX-BDu-8vxs8VD1o-1" value="&lt;font face=&quot;Old Standard TT&quot; style=&quot;font-size: 16px&quot;&gt;«&lt;/font&gt;&lt;font face=&quot;Old Standard TT&quot; style=&quot;font-size: 14px&quot;&gt;Static Files&lt;/font&gt;&lt;font face=&quot;Old Standard TT&quot;&gt;&lt;font style=&quot;font-size: 16px&quot;&gt;»&lt;/font&gt;&lt;br&gt;&lt;b style=&quot;font-size: 14px&quot;&gt;Angular Application&lt;/b&gt;&lt;/font&gt;" style="html=1;dropTarget=0;" parent="1" vertex="1">
          <mxGeometry x="450" y="323" width="150" height="70" as="geometry" />
        </mxCell>
        <mxCell id="gkH7YX-BDu-8vxs8VD1o-2" value="" style="shape=component;jettyWidth=8;jettyHeight=4;" parent="gkH7YX-BDu-8vxs8VD1o-1" vertex="1">
          <mxGeometry x="1" width="20" height="20" relative="1" as="geometry">
            <mxPoint x="-27" y="7" as="offset" />
          </mxGeometry>
        </mxCell>
        <mxCell id="gkH7YX-BDu-8vxs8VD1o-3" value="&lt;font face=&quot;Old Standard TT&quot;&gt;&lt;br&gt;&lt;font style=&quot;font-size: 16px&quot;&gt;«&lt;/font&gt;&lt;/font&gt;&lt;font face=&quot;Old Standard TT&quot; style=&quot;font-size: 14px&quot;&gt;HTTP Web Server&lt;/font&gt;&lt;font face=&quot;Old Standard TT&quot;&gt;&lt;font style=&quot;font-size: 16px&quot;&gt;»&lt;/font&gt;&lt;br&gt;&lt;b style=&quot;font-size: 14px&quot;&gt;NGINX&lt;/b&gt;&lt;/font&gt;" style="html=1;dropTarget=0;" parent="1" vertex="1">
          <mxGeometry x="450" y="190" width="150" height="70" as="geometry" />
        </mxCell>
        <mxCell id="gkH7YX-BDu-8vxs8VD1o-4" value="" style="shape=component;jettyWidth=8;jettyHeight=4;" parent="gkH7YX-BDu-8vxs8VD1o-3" vertex="1">
          <mxGeometry x="1" width="20" height="20" relative="1" as="geometry">
            <mxPoint x="-27" y="7" as="offset" />
          </mxGeometry>
        </mxCell>
        <mxCell id="gkH7YX-BDu-8vxs8VD1o-6" value="&lt;font style=&quot;font-size: 16px&quot; face=&quot;Old Standard TT&quot;&gt;«&lt;/font&gt;&lt;font style=&quot;font-size: 14px&quot; face=&quot;Old Standard TT&quot;&gt;Web application&lt;/font&gt;&lt;font face=&quot;Old Standard TT&quot;&gt;&lt;font style=&quot;font-size: 16px&quot;&gt;»&lt;/font&gt;&lt;br&gt;&lt;b style=&quot;font-size: 14px&quot;&gt;Flask Application&lt;/b&gt;&lt;/font&gt;" style="html=1;dropTarget=0;" parent="1" vertex="1">
          <mxGeometry x="840" y="300" width="140" height="85" as="geometry" />
        </mxCell>
        <mxCell id="gkH7YX-BDu-8vxs8VD1o-7" value="" style="shape=component;jettyWidth=8;jettyHeight=4;" parent="gkH7YX-BDu-8vxs8VD1o-6" vertex="1">
          <mxGeometry x="1" width="20" height="20" relative="1" as="geometry">
            <mxPoint x="-27" y="7" as="offset" />
          </mxGeometry>
        </mxCell>
        <mxCell id="gkH7YX-BDu-8vxs8VD1o-8" value="&lt;font style=&quot;font-size: 16px&quot; face=&quot;Old Standard TT&quot;&gt;«&lt;/font&gt;&lt;font style=&quot;font-size: 14px&quot; face=&quot;Old Standard TT&quot;&gt;WSGI&lt;/font&gt;&lt;font face=&quot;Old Standard TT&quot;&gt;&lt;font style=&quot;font-size: 16px&quot;&gt;»&lt;/font&gt;&lt;br&gt;&lt;b style=&quot;font-size: 14px&quot;&gt;Gunicorn&lt;/b&gt;&lt;/font&gt;" style="html=1;dropTarget=0;" parent="1" vertex="1">
          <mxGeometry x="840" y="190" width="140" height="70" as="geometry" />
        </mxCell>
        <mxCell id="gkH7YX-BDu-8vxs8VD1o-9" value="" style="shape=component;jettyWidth=8;jettyHeight=4;" parent="gkH7YX-BDu-8vxs8VD1o-8" vertex="1">
          <mxGeometry x="1" width="20" height="20" relative="1" as="geometry">
            <mxPoint x="-27" y="7" as="offset" />
          </mxGeometry>
        </mxCell>
        <mxCell id="gkH7YX-BDu-8vxs8VD1o-10" value="&lt;font style=&quot;font-size: 14px&quot; face=&quot;Old Standard TT&quot;&gt;«DataBase»&lt;br&gt;&lt;b&gt;PostgreSQL&lt;/b&gt;&lt;/font&gt;" style="html=1;dropTarget=0;" parent="1" vertex="1">
          <mxGeometry x="840" y="510" width="140" height="70" as="geometry" />
        </mxCell>
        <mxCell id="gkH7YX-BDu-8vxs8VD1o-11" value="" style="shape=component;jettyWidth=8;jettyHeight=4;" parent="gkH7YX-BDu-8vxs8VD1o-10" vertex="1">
          <mxGeometry x="1" width="20" height="20" relative="1" as="geometry">
            <mxPoint x="-27" y="7" as="offset" />
          </mxGeometry>
        </mxCell>
        <mxCell id="gkH7YX-BDu-8vxs8VD1o-19" value="&lt;font face=&quot;Old Standard TT&quot; style=&quot;font-size: 12px&quot;&gt;HTTP/JSON&lt;/font&gt;" style="html=1;verticalAlign=bottom;endArrow=none;endFill=0;entryX=0;entryY=0.5;entryDx=0;entryDy=0;exitX=1;exitY=0.5;exitDx=0;exitDy=0;rounded=0;" parent="1" source="gkH7YX-BDu-8vxs8VD1o-3" target="gkH7YX-BDu-8vxs8VD1o-8" edge="1">
          <mxGeometry width="80" relative="1" as="geometry">
            <mxPoint x="581" y="285" as="sourcePoint" />
            <mxPoint x="763.8299999999999" y="297.5999999999998" as="targetPoint" />
            <Array as="points">
              <mxPoint x="630" y="225" />
              <mxPoint x="670" y="225" />
            </Array>
            <mxPoint as="offset" />
          </mxGeometry>
        </mxCell>
        <mxCell id="gkH7YX-BDu-8vxs8VD1o-20" value="&lt;font face=&quot;Old Standard TT&quot; style=&quot;font-size: 12px&quot;&gt;SQL&lt;/font&gt;" style="html=1;verticalAlign=bottom;endArrow=none;entryX=0.5;entryY=0;entryDx=0;entryDy=0;endFill=0;exitX=0.5;exitY=1;exitDx=0;exitDy=0;" parent="1" source="gkH7YX-BDu-8vxs8VD1o-34" target="gkH7YX-BDu-8vxs8VD1o-10" edge="1">
          <mxGeometry width="80" relative="1" as="geometry">
            <mxPoint x="910" y="430" as="sourcePoint" />
            <mxPoint x="1000" y="430" as="targetPoint" />
          </mxGeometry>
        </mxCell>
        <mxCell id="gkH7YX-BDu-8vxs8VD1o-29" value="&lt;font face=&quot;Old Standard TT&quot; style=&quot;font-size: 12px&quot;&gt;SERVE FILES&lt;br&gt;&lt;/font&gt;" style="html=1;verticalAlign=bottom;endArrow=none;endFill=0;entryX=0.5;entryY=0;entryDx=0;entryDy=0;exitX=0.5;exitY=1;exitDx=0;exitDy=0;" parent="1" source="gkH7YX-BDu-8vxs8VD1o-3" target="gkH7YX-BDu-8vxs8VD1o-1" edge="1">
          <mxGeometry x="0.2698" width="80" relative="1" as="geometry">
            <mxPoint x="230.0000000000001" y="235" as="sourcePoint" />
            <mxPoint x="460" y="235" as="targetPoint" />
            <mxPoint as="offset" />
          </mxGeometry>
        </mxCell>
        <mxCell id="gkH7YX-BDu-8vxs8VD1o-33" value="&lt;font face=&quot;Old Standard TT&quot; style=&quot;font-size: 14px&quot;&gt;SQLAlchemy&lt;/font&gt;" style="text;html=1;strokeColor=none;fillColor=none;align=center;verticalAlign=middle;whiteSpace=wrap;rounded=0;" parent="1" vertex="1">
          <mxGeometry x="865" y="388" width="90" height="20" as="geometry" />
        </mxCell>
        <mxCell id="gkH7YX-BDu-8vxs8VD1o-38" value="&lt;font face=&quot;Old Standard TT&quot; style=&quot;font-size: 12px&quot;&gt;HTTP/JSON&lt;/font&gt;" style="html=1;verticalAlign=bottom;endArrow=none;endFill=0;exitX=0.5;exitY=1;exitDx=0;exitDy=0;entryX=0.5;entryY=0;entryDx=0;entryDy=0;" parent="1" source="gkH7YX-BDu-8vxs8VD1o-8" target="gkH7YX-BDu-8vxs8VD1o-6" edge="1">
          <mxGeometry x="0.3333" width="80" relative="1" as="geometry">
            <mxPoint x="920" y="410.0000000000001" as="sourcePoint" />
            <mxPoint x="910" y="290" as="targetPoint" />
            <mxPoint as="offset" />
          </mxGeometry>
        </mxCell>
      </root>
    </mxGraphModel>
  </diagram>
</mxfile>
